<?xml version="1.0" encoding="UTF-8"?>
<svg width="630" height="450" version="1.1" xmlns="http://www.w3.org/2000/svg" xmlns:xlink="http://www.w3.org/1999/xlink">
	<rect x="5" y="5" width="620" height="40" fill="#fff" stroke="#000" stroke-linejoin="round" stroke-width="2"/>
	<g id="c">
		<g id="b">
			<g id="d">
				<rect x="545" y="45" width="80" height="40" fill="#c5e93f" stroke="#000" stroke-linejoin="round" stroke-width="2"/>
				<use transform="translate(480)" xlink:href="#a"/>
				<g id="e">
					<g id="f">
						<rect id="a" x="5" y="45" width="60" height="40" fill="#c5e93f" stroke="#000" stroke-linejoin="round" stroke-width="2"/>
						<use transform="translate(60)" xlink:href="#a"/>
					</g>
					<use transform="translate(120)" xlink:href="#f"/>
				</g>
				<use transform="translate(240)" xlink:href="#e"/>
			</g>
			<use transform="translate(0 40)" xlink:href="#d"/>
		</g>
		<use transform="translate(0,80)" xlink:href="#b"/>
	</g>
	<use transform="translate(0,320)" xlink:href="#b"/>
	<use transform="translate(0,160)" xlink:href="#c"/>
	<g fill="#f00" stroke="#000" stroke-linejoin="round" stroke-width="2">
		<rect x="365" y="405" width="60" height="40"/>
		<rect x="485" y="365" width="60" height="40"/>
		<rect x="125" y="365" width="60" height="40"/>
		<rect x="485" y="325" width="60" height="40"/>
		<rect x="125" y="325" width="60" height="40"/>
		<rect x="5" y="325" width="60" height="40"/>
		<rect x="365" y="285" width="60" height="40"/>
		<rect x="5" y="285" width="60" height="40"/>
		<rect x="485" y="245" width="60" height="40"/>
		<rect x="125" y="245" width="60" height="40"/>
		<rect x="365" y="205" width="60" height="40"/>
		<rect x="125" y="205" width="60" height="40"/>
		<rect x="5" y="205" width="60" height="40"/>
		<rect x="365" y="165" width="60" height="40"/>
		<rect x="5" y="165" width="60" height="40"/>
		<rect x="485" y="125" width="60" height="40"/>
		<rect x="125" y="125" width="60" height="40"/>
		<rect x="485" y="85" width="60" height="40"/>
		<rect x="365" y="85" width="60" height="40"/>
		<rect x="125" y="85" width="60" height="40"/>
		<rect x="5" y="85" width="60" height="40"/>
		<rect x="365" y="45" width="60" height="40"/>
		<rect x="245" y="45" width="60" height="40"/>
		<rect x="125" y="45" width="60" height="40"/>
		<rect x="65" y="45" width="60" height="40"/>
		<rect x="5" y="45" width="60" height="40" fill="#fff"/>
	</g>
	<g font-family="DejaVu Sans" font-size="35" font-weight="bold" text-anchor="middle">
		<g fill="#fff">
			<text x="395" y="437">97</text>
			<text x="515" y="397">89</text>
			<text x="155" y="397">83</text>
			<text x="515" y="357">79</text>
			<text x="155" y="357">73</text>
			<text x="35" y="357">71</text>
			<text x="395" y="317">67</text>
			<text x="35" y="317">61</text>
			<text x="515" y="277">59</text>
			<text x="155" y="277">53</text>
			<text x="395" y="237">47</text>
			<text x="155" y="237">43</text>
			<text x="35" y="237">41</text>
			<text x="395" y="197">37</text>
			<text x="35" y="197">31</text>
			<text x="515" y="157">29</text>
			<text x="155" y="157">23</text>
			<text x="515" y="117">19</text>
			<text x="395" y="117">17</text>
			<text x="155" y="117">13</text>
			<text x="35" y="117">11</text>
			<text x="395" y="77">7</text>
			<text x="275" y="77">5</text>
			<text x="155" y="77">3</text>
			<text x="95" y="77">2</text>
		</g>
		<text x="583" y="437">100</text>
		<text x="515" y="437">99</text>
		<text x="455" y="437">98</text>
		<text x="335" y="437">96</text>
		<text x="275" y="437">95</text>
		<text x="215" y="437">94</text>
		<text x="155" y="437">93</text>
		<text x="95" y="437">92</text>
		<text x="35" y="437">91</text>
		<text x="583" y="397">90</text>
		<text x="455" y="397">88</text>
		<text x="395" y="397">87</text>
		<text x="335" y="397">86</text>
		<text x="275" y="397">85</text>
		<text x="215" y="397">84</text>
		<text x="95" y="397">82</text>
		<text x="35" y="397">81</text>
		<text x="583" y="357">80</text>
		<text x="455" y="357">78</text>
		<text x="395" y="357">77</text>
		<text x="335" y="357">76</text>
		<text x="275" y="357">75</text>
		<text x="215" y="357">74</text>
		<text x="95" y="357">72</text>
		<text x="583" y="317">70</text>
		<text x="515" y="317">69</text>
		<text x="455" y="317">68</text>
		<text x="335" y="317">66</text>
		<text x="275" y="317">65</text>
		<text x="215" y="317">64</text>
		<text x="155" y="317">63</text>
		<text x="95" y="317">62</text>
		<text x="583" y="277">60</text>
		<text x="455" y="277">58</text>
		<text x="395" y="277">57</text>
		<text x="335" y="277">56</text>
		<text x="275" y="277">55</text>
		<text x="215" y="277">54</text>
		<text x="95" y="277">52</text>
		<text x="35" y="277">51</text>
		<text x="583" y="237">50</text>
		<text x="515" y="237">49</text>
		<text x="455" y="237">48</text>
		<text x="335" y="237">46</text>
		<text x="275" y="237">45</text>
		<text x="215" y="237">44</text>
		<text x="95" y="237">42</text>
		<text x="583" y="197">40</text>
		<text x="515" y="197">39</text>
		<text x="455" y="197">38</text>
		<text x="335" y="197">36</text>
		<text x="275" y="197">35</text>
		<text x="215" y="197">34</text>
		<text x="155" y="197">33</text>
		<text x="95" y="197">32</text>
		<text x="583" y="157">30</text>
		<text x="455" y="157">28</text>
		<text x="395" y="157">27</text>
		<text x="335" y="157">26</text>
		<text x="275" y="157">25</text>
		<text x="215" y="157">24</text>
		<text x="95" y="157">22</text>
		<text x="35" y="157">21</text>
		<text x="583" y="117">20</text>
		<text x="455" y="117">18</text>
		<text x="335" y="117">16</text>
		<text x="275" y="117">15</text>
		<text x="215" y="117">14</text>
		<text x="95" y="117">12</text>
		<text x="583" y="77">10</text>
		<text x="515" y="77">9</text>
		<text x="455" y="77">8</text>
		<text x="335" y="77">6</text>
		<text x="215" y="77">4</text>
		<text x="35" y="77">1</text>
		<text x="315" y="37">0</text>
	</g>
</svg>
